<svg width="73" height="73" viewBox="0 0 73 73" fill="none" xmlns="http://www.w3.org/2000/svg">
<g clip-path="url(#clip0_635_2)">
<path d="M36.22 0C16.212 0 0 16.216 0 36.227C0 56.226 16.212 72.441 36.22 72.441C56.231 72.441 72.434 56.226 72.434 36.227C72.434 16.215 56.231 0 36.22 0ZM52.058 46.82C53.437 48.244 53.011 50.898 51.099 52.752C49.188 54.606 46.522 54.961 45.14 53.537L36.113 44.242L26.815 53.269C25.394 54.648 22.74 54.216 20.886 52.308C19.032 50.4 18.68 47.734 20.101 46.352L29.399 37.325L20.372 28.027C18.993 26.606 19.426 23.949 21.334 22.095C23.239 20.244 25.911 19.891 27.287 21.31L36.314 30.607L45.615 21.584C47.039 20.202 49.693 20.634 51.544 22.542C53.401 24.45 53.75 27.119 52.329 28.501L43.034 37.525L52.058 46.82Z" fill="#E63946"/>
</g>
<defs>
<clipPath id="clip0_635_2">
<rect width="72.434" height="72.44" fill="white"/>
</clipPath>
</defs>
</svg>
